# xmcd
#
# Track frame offsets: 
#        150
#        14412
#        37812
#        57312
#        77787
#        105612
#        133062
#        148737
#        164037
#        182187
#
# Disc length: 2689 seconds
#
# Revision: 3
# Processed by: cddbd v1.5.2PL0 Copyright (c) Steve Scherf et al.
# Submitted via: ExactAudioCopy v0.95b2
#
DISCID=8b0a7f0a
DTITLE=Larry Coryell - The Eleventh House
DYEAR=1974
DGENRE=Jazz - Rock
TTITLE0=Birdfingers
TTITLE1=The Funky Waltz
TTITLE2=Low-Lee-Tah
TTITLE3=Adam Smasher
TTITLE4=Joy Ride
TTITLE5=Yin
TTITLE6=Theme For A Dream
TTITLE7=Gratitude "A So Low"
TTITLE8=Ism-Ejercicio
TTITLE9=Right On Y'All
EXTD=YEAR: 1974
EXTT0=
EXTT1=
EXTT2=
EXTT3=
EXTT4=
EXTT5=
EXTT6=
EXTT7=
EXTT8=
EXTT9=
PLAYORDER=
